<svg xmlns="http://www.w3.org/2000/svg" version="1.1" xmlns:xlink="http://www.w3.org/1999/xlink" xmlns:svgjs="http://svgjs.dev/svgjs" width="1000" height="750" viewBox="0 0 1000 750"><rect width="1000" height="750" fill="#f5f5f5"></rect><g transform="matrix(0.4138908575478384,0,0,0.4138908575478384,292.6599745288096,83.23643724696353)"><svg viewBox="0 0 175 247" data-background-color="#f5f5f5" preserveAspectRatio="xMidYMid meet" height="1411" width="1000" xmlns="http://www.w3.org/2000/svg" xmlns:xlink="http://www.w3.org/1999/xlink"><g id="tight-bounds" transform="matrix(1,0,0,1,0.16684210526315724,-0.09999999999999432)"><svg viewBox="0 0 174.66631578947369 247.2" height="247.2" width="174.66631578947369"><g><svg viewBox="0 0 174.66631578947369 247.2" height="247.2" width="174.66631578947369"><g><svg viewBox="0 0 174.66631578947369 247.2" height="247.2" width="174.66631578947369"><g><svg viewBox="0 0 174.66631578947369 247.2" height="247.2" width="174.66631578947369"><g><svg viewBox="0 0 174.66631578947369 247.2" height="247.2" width="174.66631578947369"><g id="textblocktransform"><svg viewBox="0 0 174.66631578947369 247.2" height="247.2" width="174.66631578947369" id="textblock"><g><svg viewBox="0 0 174.66631578947369 247.2" height="247.2" width="174.66631578947369"><g transform="matrix(1,0,0,1,0,0)"><svg width="174.66631578947369" viewBox="1.75 -38 26.85 38" height="247.2" data-palette-color="#46b0a5"><path d="M1.75 0L1.75-2.3 5.45-2.3 5.45-34.15 1.75-34.8 1.75-36.55 9.55-38 9.55-11.85 9.8-11.85 14-16.55 20.3-23.5 16.9-23.5 16.9-25.8 27.6-25.8 27.6-23.5 23.95-23.5 16.7-15.95 25.75-2.3 28.6-2.3 28.6 0 17.95 0 17.95-2.3 21.15-2.3 13.9-13.2 9.55-8.65 9.55-2.3 13.25-2.3 13.25 0 1.75 0Z" opacity="1" transform="matrix(1,0,0,1,0,0)" fill="#46b0a5" class="wordmark-text-0" data-fill-palette-color="primary" id="text-0"></path></svg></g></svg></g></svg></g></svg></g></svg></g></svg></g></svg></g><defs></defs></svg><rect width="174.66631578947369" height="247.2" fill="none" stroke="none" visibility="hidden"></rect></g></svg></g></svg>